<svg width="26" height="26" viewBox="0 0 26 26" fill="none" xmlns="http://www.w3.org/2000/svg">
<path d="M5.41602 21.6667V20.5833C5.41602 18.5721 6.21497 16.6433 7.63712 15.2211C9.05927 13.799 10.9881 13 12.9993 13M12.9993 13C15.0106 13 16.9394 13.799 18.3616 15.2211C19.7837 16.6433 20.5827 18.5721 20.5827 20.5833V21.6667M12.9993 13C14.1486 13 15.2508 12.5435 16.0635 11.7308C16.8761 10.9181 17.3327 9.81595 17.3327 8.66668C17.3327 7.51741 16.8761 6.4152 16.0635 5.60255C15.2508 4.78989 14.1486 4.33334 12.9993 4.33334C11.8501 4.33334 10.7479 4.78989 9.93522 5.60255C9.12256 6.4152 8.66602 7.51741 8.66602 8.66668C8.66602 9.81595 9.12256 10.9181 9.93522 11.7308C10.7479 12.5435 11.8501 13 12.9993 13Z" stroke="#637381" stroke-width="2" stroke-linecap="round" stroke-linejoin="round"/>
</svg>
